<svg width="45" height="39" viewBox="0 0 45 39" fill="none" xmlns="http://www.w3.org/2000/svg">
<path d="M17.1277 33.1958V28.3095C17.1277 27.0622 18.3228 26.051 19.7971 26.051H25.1861C25.8941 26.051 26.5731 26.289 27.0737 26.7125C27.5743 27.1361 27.8555 27.7105 27.8555 28.3095V33.1958C27.851 33.7144 28.0914 34.213 28.5232 34.581C28.955 34.9491 29.5426 35.156 30.1555 35.156H33.8322C35.5493 35.1598 37.1977 34.5853 38.4134 33.5593C39.6292 32.5333 40.3125 31.1402 40.3125 29.6874V15.7671C40.3125 14.5936 39.6976 13.4803 38.6337 12.7274L26.1263 4.27585C23.9506 2.794 20.8333 2.84184 18.7226 4.38948L6.50065 12.7274C5.38639 13.4582 4.72041 14.5747 4.6875 15.7671V29.6731C4.6875 32.7012 7.58884 35.156 11.1678 35.156H14.7605C16.0335 35.156 17.0681 34.2871 17.0773 33.21L17.1277 33.1958Z" stroke="#4F46E5" stroke-width="3"/>
</svg>
